<svg width="1024" height="1024" viewBox="0 0 512 512" fill="none" xmlns="http://www.w3.org/2000/svg">
  <g>
    <path
      d="M256 146c-39 0-70 31-70 70 0 54 70 126 70 126s70-72 70-126c0-39-31-70-70-70Zm0 102a32 32 0 1 1 0-64 32 32 0 0 1 0 64Z"
      fill="#F8FAFC"
    />
    <path
      d="M256 146c-39 0-70 31-70 70 0 54 70 126 70 126s70-72 70-126c0-39-31-70-70-70Z"
      stroke="#0F172A"
      stroke-width="22"
      stroke-linejoin="round"
    />
    <path d="M220 390h72" stroke="#0F172A" stroke-width="22" stroke-linecap="round" />
    <path d="M256 354v72" stroke="#0F172A" stroke-width="22" stroke-linecap="round" />
  </g>
</svg>
